<?xml version="1.0" standalone="no"?>
<!DOCTYPE svg PUBLIC "-//W3C//DTD SVG 20010904//EN"
 "http://www.w3.org/TR/2001/REC-SVG-20010904/DTD/svg10.dtd">
<svg version="1.0" xmlns="http://www.w3.org/2000/svg"
 width="1662.000000pt" height="1662.000000pt" viewBox="0 0 1662.000000 1662.000000"
 preserveAspectRatio="xMidYMid meet">
<metadata>
Created by potrace 1.11, written by Peter Selinger 2001-2013
</metadata>
<g transform="translate(0.000000,1662.000000) scale(0.100000,-0.100000)"
fill="#000000" stroke="none">
<path d="M8426 12712 c-2 -1 -57 -5 -122 -7 -222 -8 -389 -15 -449 -20 -239
-20 -291 -25 -425 -41 -168 -19 -199 -24 -240 -34 -19 -4 -64 -11 -100 -15
-36 -3 -119 -15 -184 -26 -66 -11 -138 -23 -160 -26 -48 -6 -96 -15 -191 -37
-38 -9 -105 -23 -148 -31 -43 -8 -81 -16 -85 -19 -4 -2 -25 -7 -47 -10 -22 -4
-92 -20 -155 -36 -63 -17 -153 -39 -200 -49 -94 -21 -214 -53 -305 -81 -33
-11 -121 -35 -195 -55 -74 -20 -155 -44 -180 -55 -25 -10 -103 -37 -175 -59
-166 -51 -292 -93 -430 -142 -60 -22 -160 -58 -221 -79 -61 -21 -142 -53 -180
-70 -38 -17 -88 -35 -112 -41 -23 -5 -73 -23 -110 -40 -113 -52 -130 -59 -141
-59 -10 0 -122 -47 -226 -94 -27 -13 -77 -34 -110 -46 -33 -12 -79 -33 -102
-46 -23 -13 -46 -24 -52 -24 -6 0 -76 -31 -157 -70 -80 -38 -147 -70 -149 -70
-9 0 -290 -142 -415 -210 -74 -41 -171 -91 -215 -113 -43 -21 -91 -47 -105
-56 -14 -10 -63 -38 -110 -63 -47 -24 -155 -84 -240 -133 -85 -48 -175 -99
-200 -113 -25 -14 -49 -28 -55 -32 -5 -4 -55 -31 -110 -60 -55 -29 -106 -58
-114 -64 -7 -6 -42 -27 -77 -46 -88 -48 -216 -125 -294 -175 -36 -23 -72 -44
-81 -48 -9 -3 -47 -26 -83 -51 -37 -25 -73 -46 -81 -46 -7 0 -15 -3 -17 -8 -4
-8 -203 -142 -213 -142 -3 0 -18 -11 -33 -25 -15 -14 -30 -25 -34 -25 -5 0
-17 -8 -27 -17 -11 -10 -48 -37 -83 -61 -163 -110 -298 -214 -373 -288 -49
-48 -65 -72 -84 -127 -13 -37 -21 -70 -18 -73 2 -3 42 23 87 58 45 35 98 74
118 87 21 13 55 39 76 58 22 18 46 33 53 33 7 0 13 4 13 8 0 8 86 72 96 72 4
0 21 12 39 28 42 34 240 162 254 162 5 0 11 4 13 8 3 9 89 65 163 107 28 16
64 38 80 51 17 12 91 57 165 99 181 104 200 115 235 136 17 10 48 27 70 39 22
11 63 33 90 49 28 16 79 46 115 65 36 20 88 50 115 66 28 16 68 38 90 49 22
12 56 31 75 43 54 34 103 58 117 58 7 0 13 4 13 8 0 4 19 18 43 30 124 65 235
126 257 140 33 21 316 163 460 231 202 96 344 162 390 183 25 11 68 30 95 43
28 13 61 27 75 31 14 3 34 13 45 20 11 8 25 14 32 14 7 0 54 20 105 44 51 24
104 47 118 50 35 10 143 53 216 87 34 16 67 29 74 29 6 0 46 14 88 31 99 41
382 145 447 166 28 8 91 30 140 48 256 95 885 291 1055 330 41 9 111 27 155
40 108 30 198 51 335 75 63 12 135 27 160 35 25 8 68 17 95 20 76 10 105 15
160 24 58 11 132 22 375 56 249 36 250 36 420 50 25 2 77 6 115 9 39 4 97 8
130 11 33 2 96 7 140 10 461 34 1524 40 1975 10 30 -2 111 -6 180 -9 69 -4
157 -8 195 -11 39 -2 115 -7 170 -10 55 -3 118 -8 140 -10 38 -4 92 -8 250
-20 128 -9 199 -16 265 -25 36 -5 94 -12 130 -15 79 -8 528 -54 590 -61 87
-10 195 -25 245 -35 42 -8 286 -47 500 -79 96 -15 180 -31 210 -40 17 -5 50
-12 75 -15 71 -9 334 -61 450 -89 58 -13 130 -29 160 -35 216 -41 218 -42 328
-71 77 -20 384 -85 452 -95 19 -3 55 -12 80 -20 39 -12 131 -34 220 -51 14 -3
33 -7 43 -10 10 -3 31 -7 48 -9 17 -3 40 -7 51 -11 11 -3 30 -8 41 -10 12 -2
69 -14 127 -28 58 -14 128 -30 155 -36 28 -6 66 -15 85 -20 190 -47 359 -84
452 -101 62 -11 133 -24 158 -28 166 -31 404 -94 485 -127 33 -14 75 -30 93
-35 17 -6 32 -14 32 -19 0 -6 6 -10 13 -10 25 0 133 -59 170 -92 64 -58 77
-85 77 -159 0 -81 -26 -161 -79 -244 -22 -33 -47 -78 -56 -100 -9 -22 -24 -49
-34 -60 -10 -11 -30 -42 -46 -70 -63 -114 -74 -133 -114 -199 -67 -109 -96
-145 -183 -233 -118 -120 -241 -180 -383 -186 -93 -5 -336 31 -520 76 -33 8
-123 29 -200 46 -77 18 -160 39 -185 48 -53 18 -304 83 -340 88 -14 2 -50 11
-80 20 -30 8 -98 24 -150 35 -52 11 -117 25 -145 31 -27 6 -79 17 -115 25 -36
7 -74 15 -85 18 -11 2 -74 16 -140 30 -66 15 -140 31 -165 36 -25 5 -160 34
-300 64 -140 31 -295 62 -345 70 -49 8 -133 24 -185 36 -122 27 -281 60 -345
70 -27 4 -79 13 -115 20 -36 6 -74 13 -85 14 -11 2 -29 6 -40 9 -37 12 -373
66 -537 87 -89 12 -164 23 -168 25 -15 9 -234 37 -475 60 -88 9 -176 17 -195
20 -19 2 -75 7 -125 10 -49 3 -110 8 -135 10 -25 2 -79 7 -120 11 -41 3 -84 8
-94 10 -126 24 -1480 24 -1611 0 -11 -2 -51 -6 -90 -10 -110 -10 -166 -16
-215 -21 -25 -3 -72 -7 -105 -10 -33 -3 -114 -12 -180 -20 -66 -8 -142 -17
-170 -20 -27 -3 -63 -7 -80 -9 -16 -2 -64 -7 -105 -11 -41 -4 -102 -13 -135
-20 -33 -8 -77 -16 -99 -19 -21 -4 -42 -9 -47 -12 -5 -2 -24 -7 -44 -9 -47 -6
-149 -54 -221 -103 -66 -44 -195 -175 -219 -221 -8 -17 -19 -31 -24 -31 -5 0
-19 -20 -31 -45 -12 -25 -26 -45 -31 -45 -5 0 -9 -5 -9 -12 0 -6 -11 -34 -24
-62 -76 -161 -160 -409 -200 -591 -15 -66 -36 -140 -47 -165 -50 -114 -193
-181 -461 -215 -110 -14 -196 -40 -403 -120 -66 -26 -138 -53 -160 -60 -102
-34 -350 -133 -452 -181 -28 -13 -54 -24 -57 -24 -3 0 -29 -11 -58 -24 -29
-14 -96 -44 -148 -68 -168 -76 -489 -237 -615 -309 -67 -38 -125 -69 -128 -69
-4 0 -34 -18 -68 -40 -34 -22 -68 -40 -76 -40 -7 0 -13 -4 -13 -8 0 -5 -24
-21 -52 -36 -61 -31 -87 -47 -218 -131 -160 -103 -196 -125 -208 -125 -5 0
-12 -3 -14 -7 -5 -12 -135 -106 -247 -178 -43 -27 -159 -113 -171 -125 -3 -3
-41 -32 -85 -65 -170 -126 -242 -181 -295 -225 -30 -25 -86 -72 -125 -104
-252 -210 -659 -602 -810 -781 -27 -32 -68 -78 -91 -101 -46 -48 -119 -147
-182 -248 -24 -38 -55 -84 -70 -103 -15 -18 -39 -48 -54 -65 -14 -18 -43 -42
-65 -53 -21 -11 -40 -23 -43 -26 -3 -4 -52 -19 -110 -33 -57 -14 -146 -47
-197 -71 -77 -37 -108 -60 -171 -124 -97 -97 -115 -123 -151 -208 -75 -175
-47 -293 84 -362 l50 -26 342 3 c200 2 358 -1 380 -7 21 -5 58 -12 83 -15 42
-6 88 -17 205 -53 28 -8 104 -28 170 -44 66 -16 128 -34 138 -39 9 -6 99 -29
199 -51 100 -22 201 -47 223 -54 41 -14 215 -56 390 -94 55 -12 114 -26 132
-32 40 -12 243 -55 348 -73 44 -8 127 -26 185 -40 58 -14 128 -28 155 -31 28
-4 77 -13 110 -21 33 -7 89 -18 125 -24 36 -5 99 -17 140 -25 41 -8 154 -28
251 -44 97 -17 187 -32 200 -35 13 -3 44 -8 69 -11 103 -12 140 -17 240 -35
58 -11 152 -24 210 -31 58 -6 115 -15 128 -20 13 -5 40 -9 62 -9 32 0 150 -12
350 -35 25 -3 70 -10 100 -15 30 -5 87 -12 125 -15 67 -6 113 -10 200 -20 22
-2 72 -7 110 -10 39 -3 93 -8 120 -10 28 -3 93 -7 145 -10 52 -3 118 -8 145
-10 28 -2 106 -7 175 -10 69 -3 154 -8 190 -10 36 -2 133 -7 215 -10 83 -4
184 -8 225 -10 110 -6 638 -6 685 0 22 2 108 11 190 20 238 25 486 62 665 99
330 69 456 96 500 110 25 8 79 22 120 31 161 35 380 92 450 117 14 4 34 10 45
12 23 5 209 58 277 79 26 8 49 12 52 9 4 -3 6 -1 6 5 0 6 17 14 38 17 42 8
127 33 157 47 11 5 76 27 145 50 69 22 152 51 185 64 73 29 325 123 380 142
22 8 54 20 70 27 17 8 48 19 70 26 22 7 63 24 90 40 28 15 79 37 113 49 35 12
86 33 113 46 26 14 55 25 64 25 8 0 15 4 15 10 0 5 15 13 33 18 17 5 84 34
147 63 136 64 704 348 740 371 23 14 54 31 240 131 30 16 66 37 80 47 14 9 68
41 120 70 52 29 102 58 110 65 8 6 35 23 60 36 25 13 47 27 50 30 3 3 30 21
60 41 30 19 94 60 142 92 48 31 91 56 97 56 5 0 11 4 13 8 3 9 105 82 161 116
18 11 54 37 81 58 27 21 53 38 58 38 5 0 24 13 41 30 18 16 66 54 107 85 167
124 281 216 375 304 137 129 381 377 427 436 96 122 224 289 256 334 74 104
167 249 198 312 15 29 34 61 41 70 7 9 43 76 79 149 l66 133 -27 25 c-31 28
-128 82 -149 82 -8 0 -21 6 -28 13 -7 6 -29 18 -48 25 -111 43 -782 266 -975
324 -175 53 -197 59 -330 93 -71 18 -142 38 -157 43 -27 11 -347 89 -403 99
-16 3 -37 9 -46 13 -13 8 -231 54 -314 67 -16 3 -88 15 -160 29 -170 31 -322
54 -445 69 -25 3 -103 12 -175 21 -71 9 -137 16 -145 16 -8 0 -40 4 -70 9 -55
9 -289 34 -410 44 -36 3 -144 11 -240 20 -96 8 -213 17 -260 20 -47 3 -107 8
-135 10 -27 2 -99 7 -160 11 -60 3 -117 8 -126 9 -9 2 -65 6 -125 10 -60 4
-116 9 -124 10 -8 2 -80 6 -160 10 -80 4 -152 8 -160 10 -8 2 -119 7 -245 11
-434 17 -1465 9 -1585 -11 -14 -2 -63 -7 -110 -10 -90 -6 -131 -10 -245 -25
-38 -5 -110 -12 -160 -15 -49 -4 -104 -8 -122 -10 -17 -3 -73 -9 -125 -15
-199 -23 -233 -30 -493 -115 -60 -20 -123 -42 -140 -50 -16 -7 -70 -31 -120
-53 -130 -57 -195 -95 -355 -206 -141 -98 -275 -212 -400 -342 -87 -91 -122
-132 -224 -264 -174 -225 -358 -643 -416 -945 -40 -204 -49 -328 -45 -580 2
-132 7 -260 10 -285 9 -67 64 -324 80 -372 67 -210 149 -398 244 -560 28 -47
51 -91 51 -96 0 -6 3 -12 8 -14 4 -1 14 -13 22 -24 101 -143 197 -254 345
-399 168 -164 246 -226 425 -338 105 -66 263 -147 355 -183 l60 -24 -120 6
c-66 3 -145 7 -175 9 -30 2 -111 7 -180 11 -69 3 -132 8 -141 9 -9 2 -70 6
-135 10 -66 3 -130 8 -144 10 -14 2 -65 7 -115 10 -49 4 -117 10 -150 15 -33
5 -89 11 -125 15 -98 9 -261 25 -300 30 -19 2 -60 7 -90 10 -30 4 -66 8 -80
10 -27 4 -94 11 -180 20 -30 4 -66 8 -80 10 -188 31 -289 47 -310 50 -61 9
-386 62 -440 71 -14 3 -50 11 -80 18 -30 8 -109 23 -175 35 -126 23 -139 25
-325 67 -63 14 -131 29 -150 34 -19 4 -66 14 -105 23 -38 9 -90 20 -115 26
-25 5 -79 18 -120 29 -41 11 -140 34 -220 51 -80 17 -192 45 -250 62 -58 17
-157 43 -220 59 -63 16 -149 40 -191 53 -64 21 -186 53 -534 138 -161 39 -370
50 -545 28 -52 -6 -141 -12 -196 -12 -91 -1 -107 2 -157 27 -31 15 -66 40 -77
57 -26 35 -42 87 -35 110 6 17 158 93 210 104 17 4 39 10 50 15 11 5 38 14 60
21 58 17 127 53 149 78 11 12 24 21 30 21 6 0 26 22 45 48 19 26 40 52 45 57
6 6 23 28 38 50 15 22 43 63 63 90 20 28 58 82 84 120 27 39 65 87 85 108 20
21 36 43 36 48 0 12 556 568 605 604 22 16 81 66 131 110 50 44 131 112 179
150 48 39 95 77 105 85 81 67 240 189 260 200 14 7 55 35 91 62 37 26 72 48
78 48 6 0 11 4 11 9 0 10 105 81 120 81 5 0 10 5 10 10 0 6 6 10 14 10 8 0 16
3 18 8 5 11 174 122 186 122 6 0 12 4 14 8 4 10 143 102 155 102 5 0 50 27
101 60 51 33 95 60 98 60 2 0 37 20 77 44 39 24 113 65 162 91 50 26 95 51
100 55 34 25 696 360 709 360 3 0 41 16 83 36 90 42 200 89 258 110 22 8 83
32 135 54 149 62 250 100 264 100 7 0 26 7 42 15 49 24 294 94 384 110 109 19
261 60 303 81 100 52 207 149 282 254 101 144 194 406 222 625 3 22 9 44 14
50 5 5 9 20 9 33 0 13 10 44 21 70 12 26 30 67 41 92 51 119 171 223 309 268
88 29 283 64 476 86 22 3 52 8 65 11 31 7 451 52 558 60 47 3 99 8 115 10 228
28 1442 28 1695 0 19 -2 76 -7 125 -10 50 -3 110 -8 135 -10 42 -4 92 -8 260
-21 36 -2 110 -9 165 -15 55 -5 125 -12 155 -15 105 -9 156 -15 260 -29 160
-22 401 -55 440 -60 45 -6 164 -23 215 -30 22 -3 96 -17 165 -30 69 -13 197
-35 285 -49 88 -15 180 -31 205 -36 25 -5 160 -32 300 -60 245 -49 367 -75
495 -104 73 -17 173 -38 200 -43 37 -6 119 -24 195 -43 94 -24 239 -56 355
-79 50 -10 117 -26 150 -36 65 -19 155 -39 249 -56 33 -5 63 -12 66 -14 4 -3
99 -27 211 -55 112 -28 245 -64 295 -80 278 -88 539 -103 714 -39 113 40 311
229 390 370 8 15 41 70 73 122 31 53 57 99 57 103 0 4 6 15 14 23 7 9 37 61
65 116 29 55 58 107 65 115 7 8 29 45 50 82 20 37 59 100 86 139 28 40 50 79
50 86 0 7 3 13 8 13 4 0 21 28 37 63 17 34 32 64 35 67 3 3 6 18 8 35 2 16 8
35 13 41 27 32 27 189 0 250 -49 110 -255 207 -613 289 -31 7 -91 24 -135 38
-43 14 -109 33 -148 42 -38 8 -83 20 -100 25 -16 5 -50 12 -75 15 -25 4 -74
15 -110 25 -81 24 -270 67 -330 76 -25 3 -85 17 -135 29 -49 13 -137 33 -195
44 -114 22 -193 38 -490 100 -107 22 -220 45 -250 51 -79 17 -162 35 -270 59
-52 12 -210 44 -350 72 -140 27 -273 54 -295 59 -22 5 -101 18 -175 30 -74 11
-146 23 -160 25 -90 19 -194 38 -325 59 -155 25 -162 27 -330 50 -55 8 -145
21 -200 30 -132 20 -316 44 -390 51 -33 3 -71 8 -85 10 -14 2 -54 7 -90 10
-60 6 -267 29 -350 40 -67 8 -366 35 -455 40 -49 3 -108 8 -130 10 -22 2 -107
7 -190 10 -82 4 -161 9 -175 11 -47 9 -1606 24 -1614 16z m1169 -3536 c44 -2
154 -7 245 -11 91 -3 183 -8 205 -10 22 -2 99 -7 170 -10 72 -3 146 -8 165
-10 19 -2 87 -7 150 -10 63 -4 131 -8 150 -10 19 -2 71 -7 115 -10 105 -7 209
-15 265 -20 25 -2 81 -7 125 -10 44 -3 96 -8 115 -10 19 -3 62 -7 95 -10 33
-2 132 -11 220 -20 289 -27 267 -24 985 -131 58 -8 177 -31 265 -49 88 -19
175 -37 193 -40 29 -5 118 -24 212 -45 179 -41 661 -174 850 -235 58 -18 152
-48 210 -66 375 -116 686 -225 784 -276 39 -20 88 -46 110 -56 36 -19 38 -22
33 -58 -3 -21 -22 -65 -44 -98 -121 -189 -220 -333 -260 -381 -215 -260 -536
-566 -769 -735 -15 -11 -42 -31 -60 -45 -18 -14 -64 -47 -103 -75 -39 -27
-107 -76 -151 -108 -45 -32 -106 -73 -138 -92 -31 -18 -88 -54 -127 -78 -131
-84 -180 -114 -300 -184 -235 -137 -282 -163 -293 -163 -5 0 -12 -4 -14 -8 -3
-8 -45 -33 -153 -92 -33 -18 -89 -49 -125 -70 -80 -46 -375 -199 -575 -298
-150 -75 -250 -121 -464 -213 -63 -27 -119 -53 -125 -57 -6 -5 -42 -20 -81
-35 -38 -15 -166 -65 -284 -112 -117 -47 -255 -99 -305 -116 -50 -17 -125 -44
-166 -59 -178 -67 -779 -250 -1000 -305 -58 -14 -145 -37 -195 -50 -90 -25
-464 -111 -520 -121 -16 -3 -46 -9 -65 -14 -86 -24 -76 -6 28 50 42 24 107 62
143 86 37 24 69 44 72 44 4 0 17 9 29 21 13 11 61 50 108 86 106 81 291 253
337 313 19 25 49 61 66 80 49 54 169 229 220 320 166 300 261 566 303 843 8
55 17 103 19 107 16 25 24 341 13 493 -14 194 -73 484 -122 611 -14 33 -40
102 -59 151 -40 105 -121 267 -171 345 -20 30 -36 58 -36 62 0 25 -207 277
-334 407 -236 240 -427 376 -736 523 -71 34 -130 67 -130 72 0 8 698 2 905 -8z
m-1700 -56 c100 -10 263 -32 325 -45 14 -2 50 -10 80 -16 107 -21 315 -94 454
-158 84 -39 282 -153 336 -193 195 -145 382 -326 501 -484 64 -85 219 -331
219 -347 0 -3 20 -49 45 -102 25 -53 54 -124 66 -158 11 -33 26 -72 33 -87 27
-52 81 -312 94 -450 13 -139 7 -457 -12 -588 -60 -428 -265 -866 -552 -1182
-196 -215 -389 -368 -619 -490 -55 -29 -104 -56 -110 -60 -19 -14 -180 -78
-275 -108 -89 -29 -272 -75 -350 -88 -163 -27 -559 -24 -727 6 -210 38 -302
64 -513 148 -131 52 -152 62 -290 145 -140 85 -268 176 -346 249 -74 68 -228
228 -238 246 -5 9 -28 40 -50 67 -23 28 -63 84 -91 125 -27 41 -53 77 -56 80
-3 3 -12 19 -21 35 -8 17 -38 75 -67 130 -105 202 -161 370 -222 671 -19 97
-30 430 -17 570 20 227 82 475 172 687 49 116 133 277 150 289 6 4 7 8 3 8
-13 0 121 188 208 290 163 193 334 341 540 467 139 86 478 242 525 243 8 0 33
7 55 14 65 23 503 92 595 95 25 0 95 -4 155 -9z"/>
<path d="M7890 8850 c-65 -7 -182 -48 -260 -92 -154 -86 -276 -238 -325 -408
-24 -82 -30 -222 -14 -310 7 -41 14 -80 14 -86 1 -26 79 -165 132 -235 50 -66
156 -159 182 -159 4 0 20 -9 33 -20 14 -10 61 -32 104 -46 70 -25 94 -28 214
-28 102 0 151 4 200 18 108 31 239 112 310 193 100 114 110 130 156 264 31 93
35 115 35 207 -1 114 -3 125 -38 232 -40 120 -121 238 -211 308 -169 131 -338
182 -532 162z m212 -144 c94 -18 176 -65 267 -154 69 -67 76 -78 126 -182 28
-57 53 -186 42 -214 -6 -15 -11 -14 -44 7 -90 56 -320 133 -488 162 -81 14
-316 21 -370 11 -20 -4 -161 -20 -180 -21 -37 -1 40 157 113 232 141 145 323
199 534 159z"/>
<path d="M6363 8105 c-143 -32 -321 -159 -409 -291 -69 -104 -123 -283 -119
-394 8 -193 73 -340 209 -475 106 -105 146 -131 276 -175 130 -44 227 -50 355
-20 150 34 242 85 351 194 74 75 98 107 133 178 101 209 97 425 -12 647 -53
108 -209 249 -327 297 -36 14 -74 31 -85 37 -32 17 -299 19 -372 2z m264 -120
c100 -12 103 -19 32 -95 -56 -60 -102 -118 -186 -234 -106 -145 -175 -329
-248 -663 -8 -37 -29 -27 -95 45 -103 110 -150 234 -150 395 0 166 50 287 164
400 70 70 126 102 235 134 59 17 146 31 171 27 8 -1 43 -5 77 -9z"/>
<path d="M9108 7714 c-3 -2 -31 -7 -64 -10 -32 -3 -68 -9 -79 -14 -11 -5 -38
-14 -60 -21 -101 -30 -169 -76 -267 -177 -59 -62 -100 -114 -108 -136 -6 -20
-15 -36 -19 -36 -21 0 -71 -209 -73 -305 -2 -105 46 -286 89 -336 7 -8 13 -19
13 -24 0 -23 63 -95 140 -162 139 -120 251 -163 441 -171 105 -4 124 -2 205
23 49 15 109 38 135 50 49 25 156 108 178 138 7 11 26 30 41 44 15 13 35 42
45 64 10 21 22 39 27 39 4 0 8 6 8 13 0 7 9 33 21 56 42 87 62 252 45 371 -7
51 -46 183 -56 190 -4 3 -16 22 -26 42 -30 59 -115 162 -164 198 -25 19 -49
39 -55 44 -15 16 -113 62 -170 79 -82 25 -237 51 -247 41z m197 -159 c157 -46
324 -214 371 -372 35 -119 21 -311 -29 -412 -44 -88 -171 -218 -254 -260 -99
-49 -100 -48 -83 69 10 71 13 318 5 390 -17 138 -41 236 -82 340 -60 151 -99
237 -113 245 -9 6 -9 10 1 16 18 12 121 3 184 -16z"/>
<path d="M7489 7390 c-30 -18 -71 -88 -71 -123 0 -45 39 -89 93 -107 38 -13
44 -12 86 10 43 23 73 62 73 96 0 33 -39 99 -69 117 -31 18 -86 22 -112 7z"/>
<path d="M8076 7295 c-73 -39 -93 -95 -61 -171 25 -61 109 -82 172 -43 58 36
75 90 49 154 -26 61 -104 90 -160 60z"/>
<path d="M7707 7098 c-21 -4 -50 -14 -66 -22 -45 -24 -119 -113 -132 -159 -24
-87 -8 -193 36 -245 14 -17 25 -35 25 -41 0 -6 5 -11 10 -11 6 0 29 -12 53
-27 33 -21 58 -27 120 -31 94 -6 149 12 206 66 53 51 68 77 85 151 14 60 14
67 -6 128 -25 76 -80 142 -141 172 -48 23 -132 32 -190 19z"/>
<path d="M7213 6860 c-39 -24 -54 -50 -55 -99 -1 -114 119 -169 202 -91 25 23
30 36 30 73 0 24 -5 58 -11 76 -20 58 -104 79 -166 41z"/>
<path d="M8174 6724 c-12 -3 -33 -18 -48 -33 -54 -57 -41 -156 25 -195 79 -46
199 29 184 115 -15 82 -82 130 -161 113z"/>
<path d="M6611 6510 c-135 -36 -216 -83 -316 -184 -71 -72 -99 -109 -133 -176
-61 -123 -70 -161 -71 -313 -2 -117 1 -143 23 -213 32 -99 87 -186 169 -266
170 -166 306 -221 532 -214 190 6 310 61 460 211 73 73 98 105 128 169 53 111
67 173 68 302 0 131 -16 210 -66 319 -31 67 -52 95 -134 176 -80 80 -112 104
-182 137 -46 23 -113 48 -149 56 -90 22 -238 19 -329 -4z m-257 -359 c6 -11
24 -44 40 -73 16 -29 37 -64 47 -77 11 -13 19 -30 19 -37 0 -8 4 -14 9 -14 4
0 24 -24 44 -53 46 -70 300 -327 323 -327 2 0 37 -23 79 -51 41 -27 89 -55
105 -61 17 -5 30 -14 30 -19 0 -5 3 -8 8 -7 4 1 22 -6 41 -16 l34 -18 -24 -19
c-108 -82 -288 -123 -431 -97 -122 22 -264 104 -327 188 -14 19 -32 41 -40 49
-14 15 -54 99 -56 116 0 6 -3 15 -7 20 -17 27 -30 143 -25 219 6 95 46 223 85
274 26 34 28 34 46 3z"/>
<path d="M7633 6450 c-67 -41 -89 -100 -58 -160 34 -65 97 -86 171 -55 60 25
86 128 44 173 -51 54 -111 70 -157 42z"/>
<path d="M8280 6269 c-115 -14 -288 -97 -381 -181 -83 -76 -184 -251 -209
-363 -53 -236 31 -492 219 -667 77 -72 132 -104 240 -140 165 -56 353 -48 507
22 61 27 186 113 214 147 93 110 146 206 178 319 24 85 22 249 -3 348 -47 184
-182 354 -345 434 -143 69 -289 98 -420 81z m638 -560 c27 -117 6 -284 -49
-397 -68 -138 -254 -274 -397 -291 -73 -8 -176 -5 -227 7 -115 27 -253 109
-309 185 -26 35 -16 44 59 57 33 6 92 20 130 31 294 88 476 190 680 383 44 41
85 76 91 76 6 0 16 -23 22 -51z"/>
</g>
</svg>
